<svg data-name="bolder text - white" xmlns="http://www.w3.org/2000/svg" viewBox="0 0 2000 800" role="img" fill="#FFFFFF">
    <g data-name="RA condensed">
        <path d="M114.42 366.74h-40V143.37h92.48c39.04 0 59.84 25.28 59.84 67.84 0 33.6-13.12 56.32-37.76 64.32l40.64 91.2h-43.2l-36.8-88h-35.2v88Zm48.32-121.28c13.76 0 22.08-6.72 22.08-23.68v-19.84c0-16.96-8.32-23.68-22.08-23.68h-48.32v67.2h48.32ZM258.74 366.74v-31.68h26.56V175.05h-26.56v-31.68h93.12v31.68H325.3v160h26.56v31.68h-93.12ZM518.9 332.81h-4.48c-3.52 21.76-21.44 37.76-51.84 37.76-51.2 0-80.32-41.6-80.32-114.88 0-81.92 34.56-116.16 87.68-116.16 39.68 0 64.96 17.92 79.36 50.24l-32.64 18.88c-7.04-21.12-21.44-34.56-46.72-34.56-28.16 0-45.12 19.2-45.12 53.12v55.68c0 33.92 16.96 53.12 45.12 53.12 25.6 0 44.8-14.08 44.8-39.68v-16.32H475.7v-33.92h77.12v120.64H518.9v-33.92ZM717.29 270.41h-81.6v96.32h-40V143.37h40v93.12h81.6v-93.12h40v223.37h-40v-96.32ZM884.33 178.25v188.48h-40V178.25h-56v-34.88h152.32v34.88h-56.32ZM1164.32 366.74l-15.68-58.24h-72l-15.68 58.24h-38.4l65.28-223.37h50.56l65.28 223.37h-39.36Zm-42.56-151.68-7.04-35.52h-4.48l-7.04 35.52-16.96 61.12h52.8l-17.28-61.12ZM1288.8 239.69l-15.68-38.72h-4.48l2.56 40v125.76h-37.76V143.37h44.48l61.76 127.04 15.68 38.72h4.48l-2.56-40V143.37h37.76v223.37h-44.48L1288.8 239.7ZM1570.07 332.81h-4.48c-3.52 21.76-21.44 37.76-51.84 37.76-51.2 0-80.32-41.6-80.32-114.88 0-81.92 34.56-116.16 87.68-116.16 39.68 0 64.96 17.92 79.36 50.24l-32.64 18.88c-7.04-21.12-21.44-34.56-46.72-34.56-28.16 0-45.12 19.2-45.12 53.12v55.68c0 33.92 16.96 53.12 45.12 53.12 25.6 0 44.8-14.08 44.8-39.68v-16.32h-39.04v-33.92h77.12v120.64h-33.92v-33.92ZM1646.87 366.74V143.37h40v188.48h78.4v34.88h-118.4ZM1798.23 366.74V143.37h134.08v34.88h-94.08v58.24h82.24v33.92h-82.24v61.44h94.08v34.88h-134.08Z"></path>
    </g>
    <g data-name="ENG condensed">
        <path d="m55.69 670.06 44.8-223.37h120.64l-5.12 25.6h-92.16l-14.4 72h83.2l-4.8 25.6h-83.52l-15.04 74.56h96.96l-5.12 25.6H55.69ZM297.29 529.9l-10.88-48.32h-3.2l-6.72 48-28.16 140.48h-27.2l44.8-223.37h33.92l38.4 140.16 10.88 48.32h3.2l6.72-48 28.16-140.48h27.2l-44.8 223.37h-33.92l-38.4-140.16ZM551.05 636.46h-3.52c-8.32 22.4-25.92 37.44-56.32 37.44-39.04 0-63.68-28.48-63.68-72.96 0-14.4 2.88-36.8 7.68-59.2 13.44-64.96 47.36-98.88 98.56-98.88 39.68 0 61.76 20.48 69.44 50.88l-25.92 11.2c-4.16-23.04-18.24-35.84-45.76-35.84-35.52 0-55.36 21.12-64.32 65.6l-8 40c-1.92 9.6-2.56 17.92-2.56 24.32 0 30.4 15.36 48.64 43.2 48.64 30.08 0 51.52-18.56 56.96-46.08l4.48-22.08h-41.6l5.44-25.28h68.48l-23.04 115.84h-26.24l6.72-33.6ZM609.28 670.06l4.8-24h26.24l35.2-175.36h-26.24l4.8-24h80.96l-4.8 24H704l-35.52 175.36h26.24l-4.48 24h-80.96ZM810.56 529.9l-10.88-48.32h-3.2l-6.72 48-28.16 140.48h-27.2l44.8-223.37h33.92l38.4 140.16 10.88 48.32h3.2l6.72-48 28.16-140.48h27.2l-44.8 223.37h-33.92l-38.4-140.16ZM935.36 670.06l44.8-223.37h120.64l-5.12 25.6h-92.16l-14.4 72h83.2l-4.8 25.6H984l-15.04 74.56h96.96l-5.12 25.6H935.36ZM1100.8 670.06l44.8-223.37h120.64l-5.12 25.6h-92.16l-14.4 72h83.2l-4.8 25.6h-83.52l-15.04 74.56h96.96l-5.12 25.6H1100.8ZM1294.4 670.06h-28.16l44.8-223.37h74.88c35.84 0 49.92 18.88 49.92 51.52 0 38.72-19.84 68.16-53.12 75.52l26.88 96.32h-30.08l-24-93.44h-42.24l-18.88 93.44Zm75.84-118.72c16.64 0 28.48-9.92 32.32-29.12 3.52-17.92 4.16-22.4 4.16-29.44 0-14.08-7.36-20.48-23.04-20.48h-49.6l-16 79.04h52.16ZM1442.24 670.06l4.8-24h26.24l35.2-175.36h-26.24l4.8-24H1568l-4.8 24h-26.24l-35.52 175.36h26.24l-4.48 24h-80.96ZM1643.52 529.9l-10.88-48.32h-3.2l-6.72 48-28.16 140.48h-27.2l44.8-223.37h33.92l38.4 140.16 10.88 48.32h3.2l6.72-48 28.16-140.48h27.2l-44.8 223.37h-33.92l-38.4-140.16ZM1897.28 636.46h-3.52c-8.32 22.4-25.92 37.44-56.32 37.44-39.04 0-63.68-28.48-63.68-72.96 0-14.4 2.88-36.8 7.68-59.2 13.44-64.96 47.36-98.88 98.56-98.88 39.68 0 61.76 20.48 69.44 50.88l-25.92 11.2c-4.16-23.04-18.24-35.84-45.76-35.84-35.52 0-55.36 21.12-64.32 65.6l-8 40c-1.92 9.6-2.56 17.92-2.56 24.32 0 30.4 15.36 48.64 43.2 48.64 30.08 0 51.52-18.56 56.96-46.08l4.48-22.08h-41.6l5.44-25.28h68.48l-23.04 115.84h-26.24l6.72-33.6Z"></path>
    </g>
</svg>